<svg id="svg" version="1.1" xmlns="http://www.w3.org/2000/svg" xmlns:xlink="http://www.w3.org/1999/xlink" width="400" height="393.0735930735931" viewBox="0, 0, 400,393.0735930735931"><g id="svgg"><path id="path0" d="M3.933 118.141 L 3.933 142.380 9.257 142.380 L 14.581 142.380 14.469 176.599 C 14.407 195.419,14.415 210.641,14.487 210.424 C 14.708 209.760,15.339 209.986,15.339 210.729 C 15.339 211.114,15.693 211.684,16.126 211.996 C 16.559 212.308,16.912 212.789,16.912 213.066 C 16.912 213.343,17.159 213.569,17.460 213.569 C 17.762 213.569,18.099 213.807,18.211 214.097 C 18.342 214.439,18.840 214.561,19.629 214.445 C 20.400 214.332,20.846 214.436,20.846 214.729 C 20.846 215.543,154.630 214.893,156.932 214.068 C 160.478 212.798,163.618 209.209,163.618 206.426 C 163.618 205.879,164.162 203.943,164.827 202.125 C 166.534 197.458,167.436 194.447,167.898 191.879 C 168.117 190.657,168.989 187.560,169.836 184.996 C 170.682 182.432,171.504 179.626,171.661 178.761 C 172.364 174.893,172.687 173.744,174.431 168.928 C 175.449 166.116,176.422 163.107,176.594 162.242 C 177.563 157.345,177.877 156.246,178.961 153.976 C 181.665 148.311,183.568 147.791,200.983 147.959 L 213.766 148.083 215.536 149.131 C 218.304 150.770,219.718 152.507,220.445 155.162 C 221.083 157.493,223.152 163.862,223.767 165.388 C 224.282 166.667,224.975 169.845,224.975 170.926 C 224.975 171.478,225.180 172.312,225.430 172.780 C 225.680 173.247,226.020 174.165,226.184 174.819 C 226.349 175.473,227.104 177.778,227.861 179.941 C 228.619 182.104,229.524 185.290,229.871 187.021 C 230.484 190.074,231.739 194.236,232.433 195.515 C 232.620 195.861,233.153 197.808,233.618 199.842 C 235.910 209.877,237.572 212.516,242.605 214.106 C 244.705 214.770,378.368 215.349,378.368 214.694 C 378.368 214.508,378.810 214.356,379.351 214.356 C 379.892 214.356,380.334 214.179,380.334 213.963 C 380.334 213.746,380.701 213.569,381.149 213.569 C 382.032 213.569,383.088 212.715,383.088 212.001 C 383.088 211.756,383.265 211.666,383.481 211.799 C 383.715 211.944,383.874 211.476,383.874 210.643 C 383.874 209.873,384.051 209.243,384.267 209.243 C 384.527 209.243,384.661 197.837,384.661 175.811 L 384.661 142.380 389.732 142.380 C 393.993 142.380,394.841 142.280,395.041 141.757 C 395.173 141.415,395.280 130.506,395.280 117.515 L 395.280 93.895 369.027 94.224 C 335.520 94.644,77.666 94.640,35.693 94.220 L 3.933 93.902 3.933 118.141 M154.657 116.912 C 155.609 118.580,155.374 191.227,154.413 192.289 L 153.664 193.117 92.408 193.117 L 31.153 193.117 29.954 191.752 L 28.756 190.386 28.724 158.895 C 28.687 123.463,28.838 118.440,29.981 116.987 L 30.736 116.028 92.443 116.028 L 154.151 116.028 154.657 116.912 M369.372 116.678 C 369.819 117.217,369.930 123.658,370.018 154.304 L 370.124 191.280 369.261 192.198 L 368.398 193.117 306.987 193.117 C 245.840 193.117,245.572 193.114,244.720 192.319 C 243.404 191.094,243.431 191.961,243.548 153.665 L 243.658 117.556 244.641 116.800 C 246.067 115.705,368.464 115.585,369.372 116.678 " stroke="none" fill="#343434" fill-rule="evenodd"></path><path id="path1" d="M122.360 4.949 C 122.382 7.828,122.525 9.603,122.689 9.046 C 123.015 7.944,122.894 0.442,122.545 0.093 C 122.422 -0.030,122.338 2.155,122.360 4.949 M184.460 2.852 C 184.444 14.175,185.319 92.413,185.470 93.117 L 185.659 94.002 199.607 94.002 L 213.554 94.002 213.736 93.117 C 213.917 92.239,214.120 76.710,214.610 26.254 L 214.865 -0.000 199.665 -0.000 L 184.464 0.000 184.460 2.852 M246.853 7.571 C 246.707 11.735,246.426 21.160,246.228 28.515 C 245.524 54.585,245.054 69.955,244.611 81.316 C 244.364 87.642,244.264 93.084,244.389 93.410 C 244.764 94.386,272.363 94.293,272.765 93.314 C 272.920 92.935,273.193 88.732,273.371 83.972 C 273.759 73.589,274.334 61.611,275.184 46.214 C 275.837 34.364,276.278 23.681,276.730 8.751 L 276.994 -0.000 262.056 -0.000 L 247.117 0.000 246.853 7.571 M309.532 1.278 C 309.528 1.981,309.347 4.680,309.129 7.276 C 308.910 9.872,308.553 14.916,308.334 18.486 C 308.115 22.055,307.761 27.542,307.549 30.678 C 307.088 37.464,306.614 44.828,306.017 54.474 C 305.776 58.368,305.310 65.890,304.982 71.190 C 303.926 88.226,303.698 93.405,303.991 93.712 C 304.149 93.877,310.550 93.966,318.216 93.909 L 332.153 93.805 332.402 90.659 C 332.539 88.928,332.763 86.362,332.901 84.956 C 333.170 82.198,333.669 75.659,334.328 66.273 C 334.850 58.832,336.584 38.278,336.899 35.792 C 337.074 34.412,337.496 28.972,338.228 18.682 C 338.444 15.654,338.800 10.647,339.021 7.556 C 339.242 4.466,339.532 1.501,339.665 0.968 L 339.908 0.000 324.723 0.000 L 309.538 0.000 309.532 1.278 M151.451 6.808 C 151.437 8.713,151.565 10.187,151.735 10.081 C 152.196 9.796,152.286 5.368,151.852 4.284 C 151.568 3.573,151.470 4.189,151.451 6.808 M151.910 12.586 C 151.910 13.343,151.991 13.653,152.090 13.274 C 152.189 12.896,152.189 12.276,152.090 11.898 C 151.991 11.519,151.910 11.829,151.910 12.586 M125.916 86.496 C 125.885 88.750,125.961 90.493,126.083 90.370 C 126.439 90.015,126.519 86.918,126.233 84.562 C 126.013 82.748,125.962 83.060,125.916 86.496 M186.030 148.879 C 185.648 149.339,185.596 150.962,185.806 155.860 C 185.957 159.370,186.258 187.552,186.475 218.486 C 187.206 322.376,187.579 366.288,187.848 379.843 L 188.114 393.314 199.599 393.314 L 211.083 393.314 211.377 359.194 C 211.539 340.428,211.826 308.437,212.015 288.102 C 212.205 267.768,212.535 229.538,212.749 203.147 C 212.964 176.755,213.246 154.094,213.376 152.788 C 213.508 151.469,213.433 149.940,213.208 149.347 L 212.802 148.279 199.665 148.279 C 188.375 148.279,186.457 148.364,186.030 148.879 M241.086 216.814 C 241.077 218.166,240.899 223.697,240.690 229.105 C 240.481 234.513,240.129 246.726,239.909 256.244 C 239.531 272.542,239.289 282.319,238.367 318.387 C 238.002 332.645,237.622 346.124,236.785 374.435 C 236.577 381.465,236.401 388.589,236.394 390.265 L 236.382 393.314 247.927 393.314 L 259.473 393.314 259.727 386.529 C 260.356 369.723,260.726 361.026,260.936 358.112 C 261.061 356.382,261.426 349.125,261.749 341.986 C 262.071 334.848,262.433 327.768,262.553 326.254 C 262.673 324.739,262.942 318.810,263.150 313.078 C 263.358 307.345,263.695 298.673,263.900 293.805 C 264.105 288.938,264.448 280.531,264.662 275.123 C 264.877 269.715,265.150 264.051,265.270 262.537 C 265.389 261.023,265.755 253.589,266.084 246.018 C 266.412 238.446,266.854 230.188,267.067 227.667 C 267.279 225.145,267.453 221.295,267.453 219.112 L 267.453 215.143 255.087 215.143 C 247.267 215.143,242.632 214.998,242.478 214.749 C 241.721 213.525,241.101 214.445,241.086 216.814 M138.348 215.437 C 141.214 215.504,145.905 215.504,148.771 215.437 C 151.637 215.369,149.292 215.314,143.559 215.314 C 137.827 215.314,135.482 215.369,138.348 215.437 M154.572 215.297 C 154.572 215.679,155.680 215.823,156.181 215.506 C 156.585 215.250,156.441 215.153,155.654 215.149 C 155.059 215.145,154.572 215.212,154.572 215.297 M295.755 216.224 C 295.732 217.668,295.081 228.463,294.574 235.792 C 293.977 244.421,293.558 251.029,292.864 262.734 C 291.938 278.364,290.957 293.753,289.491 315.634 C 288.638 328.367,288.290 333.895,287.709 343.953 C 287.000 356.227,286.521 363.893,285.928 372.468 C 285.696 375.821,285.346 381.131,285.151 384.267 C 284.956 387.404,284.676 390.723,284.529 391.642 L 284.262 393.314 296.113 393.314 L 307.965 393.314 307.965 390.575 C 307.965 389.068,308.138 386.103,308.350 383.987 C 308.562 381.870,309.008 376.775,309.341 372.665 C 309.674 368.555,310.048 364.395,310.172 363.422 C 310.479 361.011,311.047 354.136,311.487 347.493 C 311.688 344.464,311.953 340.836,312.077 339.430 C 312.200 338.024,312.569 333.156,312.897 328.614 C 313.225 324.071,313.576 319.912,313.678 319.371 C 313.942 317.959,315.151 303.648,315.788 294.395 C 315.997 291.367,316.264 288.004,316.382 286.922 C 316.500 285.841,316.785 282.124,317.014 278.663 C 317.243 275.202,317.604 270.600,317.815 268.437 C 318.026 266.273,318.384 262.291,318.610 259.587 C 318.837 256.883,319.195 252.812,319.407 250.541 C 319.782 246.520,320.098 242.376,320.894 231.072 C 321.107 228.043,321.382 224.371,321.506 222.911 C 321.630 221.450,321.824 219.105,321.938 217.699 L 322.146 215.143 308.959 215.143 L 295.772 215.143 295.755 216.224 M134.657 277.483 C 134.658 279.646,134.724 280.481,134.804 279.338 C 134.883 278.195,134.883 276.425,134.802 275.405 C 134.721 274.384,134.656 275.320,134.657 277.483 M135.300 291.750 C 135.300 292.639,135.458 293.463,135.650 293.582 C 136.001 293.799,135.849 290.683,135.490 290.325 C 135.386 290.220,135.300 290.861,135.300 291.750 M135.306 295.084 C 135.309 295.570,135.484 296.234,135.693 296.559 C 135.977 296.997,136.076 296.771,136.081 295.674 C 136.084 294.862,135.910 294.199,135.693 294.199 C 135.477 294.199,135.303 294.597,135.306 295.084 M160.079 322.058 C 160.079 322.960,160.211 323.697,160.374 323.697 C 160.730 323.698,160.695 321.036,160.334 320.675 C 160.194 320.534,160.079 321.157,160.079 322.058 M160.315 327.500 C 160.660 331.000,160.865 331.156,160.865 327.916 C 160.865 326.486,160.682 325.203,160.458 325.065 C 160.182 324.895,160.136 325.684,160.315 327.500 M161.419 355.162 C 161.419 358.732,161.478 360.192,161.551 358.407 C 161.624 356.622,161.624 353.702,161.551 351.917 C 161.478 350.133,161.419 351.593,161.419 355.162 M138.947 371.288 C 138.947 372.262,139.024 372.660,139.117 372.173 C 139.211 371.686,139.211 370.890,139.117 370.403 C 139.024 369.916,138.947 370.315,138.947 371.288 M139.632 388.102 C 139.637 388.889,139.734 389.033,139.989 388.630 C 140.182 388.325,140.249 387.838,140.138 387.548 C 139.819 386.716,139.626 386.928,139.632 388.102 M139.626 390.734 C 139.626 391.287,139.803 391.740,140.020 391.740 C 140.236 391.740,140.413 391.397,140.413 390.977 C 140.413 390.557,140.236 390.104,140.020 389.971 C 139.797 389.833,139.626 390.163,139.626 390.734 " stroke="none" fill="#ecdbb4" fill-rule="evenodd"></path><path id="path2" d="M26.358 1.278 C 26.363 2.248,26.456 2.414,26.745 1.967 C 27.028 1.529,27.128 1.763,27.133 2.875 C 27.137 3.970,27.006 4.293,26.647 4.078 C 26.278 3.856,26.283 3.940,26.666 4.413 C 26.995 4.818,27.035 5.131,26.779 5.289 C 26.518 5.450,26.512 5.876,26.760 6.529 C 26.968 7.076,27.159 8.619,27.184 9.957 C 27.209 11.295,27.315 12.035,27.419 11.603 C 27.786 10.079,28.319 10.046,28.319 11.547 C 28.319 12.433,28.161 12.928,27.925 12.783 C 27.709 12.649,27.532 12.727,27.532 12.956 C 27.532 13.185,27.709 13.373,27.925 13.373 C 28.149 13.373,28.331 14.604,28.346 16.224 C 28.366 18.277,28.475 18.855,28.734 18.289 C 29.027 17.648,29.084 17.756,29.042 18.879 C 28.913 22.343,29.127 25.205,29.499 24.975 C 29.728 24.834,29.892 25.234,29.892 25.935 C 29.892 26.609,29.684 27.139,29.420 27.139 C 29.053 27.139,29.053 27.244,29.420 27.611 C 29.689 27.880,29.894 29.187,29.898 30.659 C 29.902 32.467,30.018 33.059,30.285 32.645 C 30.570 32.205,30.661 32.404,30.645 33.432 C 30.627 34.556,30.561 34.664,30.285 34.022 C 29.963 33.271,29.946 33.276,29.919 34.120 C 29.904 34.607,30.069 35.005,30.285 35.005 C 30.528 35.005,30.689 37.219,30.706 40.806 C 30.723 44.414,30.862 46.310,31.072 45.821 C 31.394 45.070,31.411 45.075,31.437 45.919 C 31.453 46.406,31.288 46.804,31.072 46.804 C 30.855 46.804,30.699 47.380,30.725 48.083 L 30.772 49.361 31.093 48.181 C 31.400 47.058,31.414 47.077,31.385 48.574 C 31.296 53.232,31.458 54.649,32.055 54.420 C 32.503 54.248,32.645 54.493,32.645 55.438 C 32.645 56.168,32.482 56.583,32.252 56.441 C 32.035 56.307,31.858 56.374,31.858 56.591 C 31.858 56.807,32.035 57.093,32.252 57.227 C 32.468 57.361,32.645 58.334,32.645 59.390 C 32.645 60.446,32.834 61.427,33.065 61.570 C 33.296 61.713,33.455 62.387,33.419 63.068 C 33.254 66.135,33.453 68.863,33.825 68.633 C 34.049 68.495,34.218 68.834,34.218 69.420 C 34.218 70.006,34.049 70.345,33.825 70.206 C 33.609 70.073,33.432 70.239,33.432 70.577 C 33.432 70.914,33.609 71.190,33.825 71.190 C 34.058 71.190,34.218 72.624,34.218 74.706 C 34.218 76.641,34.395 78.332,34.612 78.466 C 34.842 78.608,35.028 81.188,35.061 84.684 C 35.096 88.458,35.220 90.079,35.398 89.086 C 35.675 87.541,35.681 87.551,35.730 89.676 C 35.767 91.289,35.674 91.689,35.366 91.249 C 34.929 90.624,35.145 91.667,35.834 93.510 L 36.165 94.395 51.565 94.395 L 66.965 94.395 66.703 92.422 C 66.559 91.337,66.271 88.107,66.064 85.244 C 65.856 82.381,65.416 77.119,65.086 73.550 C 64.433 66.477,63.926 60.427,63.323 52.507 C 63.109 49.695,62.765 45.270,62.559 42.675 C 62.354 40.079,61.999 35.477,61.771 32.448 C 61.543 29.420,61.087 24.022,60.758 20.452 C 60.429 16.883,59.994 11.839,59.790 9.243 C 59.586 6.647,59.307 3.505,59.170 2.262 L 58.920 0.000 42.636 0.000 L 26.352 0.000 26.358 1.278 M90.069 3.132 C 90.069 4.855,90.240 7.997,90.448 10.114 C 90.657 12.231,91.019 17.148,91.254 21.042 C 91.488 24.936,91.845 30.777,92.048 34.022 C 92.250 37.266,92.600 43.107,92.824 47.001 C 93.386 56.762,94.321 71.506,94.782 77.876 C 94.993 80.796,95.266 84.779,95.389 86.726 C 95.512 88.673,95.717 91.195,95.844 92.330 L 96.077 94.395 110.834 94.395 L 125.591 94.395 125.329 87.611 C 125.184 83.879,124.891 77.109,124.676 72.566 C 124.462 68.024,124.113 59.971,123.900 54.671 C 123.688 49.371,123.338 41.229,123.123 36.578 C 122.907 31.927,122.553 24.051,122.334 19.076 C 122.116 14.100,121.822 7.773,121.680 5.015 L 121.423 0.000 105.746 0.000 L 90.069 0.000 90.069 3.132 M152.769 7.178 C 153.033 14.488,153.434 28.696,154.220 58.604 C 154.462 67.797,154.684 79.656,154.714 84.956 L 154.769 94.592 169.971 94.592 C 183.357 94.592,185.137 94.521,184.870 94.002 C 184.702 93.677,184.452 74.385,184.313 51.131 C 184.174 27.876,183.950 6.858,183.816 4.425 L 183.571 -0.000 168.040 -0.000 L 152.510 -0.000 152.769 7.178 M215.407 3.835 C 215.270 5.944,215.050 26.696,214.916 49.951 C 214.783 73.206,214.540 92.763,214.377 93.412 L 214.080 94.592 229.066 94.592 L 244.051 94.592 244.108 85.152 C 244.139 79.961,244.360 69.607,244.600 62.144 C 245.215 43.030,245.765 23.667,246.055 10.914 L 246.304 -0.000 230.979 -0.000 L 215.654 0.000 215.407 3.835 M277.674 2.655 C 277.669 5.565,277.233 15.645,276.301 34.415 C 275.185 56.904,274.898 63.078,274.539 72.370 C 274.015 85.942,273.733 92.083,273.573 93.424 L 273.431 94.615 288.239 94.604 L 303.048 94.592 303.125 92.625 C 303.241 89.621,304.415 69.359,304.845 62.930 C 305.055 59.794,305.399 54.395,305.609 50.934 C 305.820 47.473,306.161 42.163,306.366 39.135 C 307.405 23.842,308.737 2.341,308.747 0.688 C 308.751 0.044,307.751 0.000,293.215 0.000 L 277.679 0.000 277.674 2.655 M340.076 3.638 C 339.669 9.362,339.094 16.674,338.630 22.026 C 338.396 24.730,338.052 28.889,337.864 31.268 C 337.677 33.648,337.159 39.931,336.713 45.231 C 335.962 54.173,335.733 57.032,334.696 70.403 C 334.028 79.012,333.507 85.019,333.006 89.883 L 332.520 94.614 337.450 94.599 C 340.161 94.591,346.897 94.542,352.419 94.490 L 362.459 94.395 362.309 92.822 C 362.219 91.877,362.327 91.249,362.579 91.249 C 362.835 91.249,363.043 89.910,363.113 87.807 C 363.212 84.817,363.289 84.495,363.693 85.349 C 364.105 86.219,364.161 86.029,364.184 83.701 C 364.197 82.253,364.385 80.960,364.602 80.826 C 364.818 80.692,364.977 80.195,364.956 79.721 C 364.919 78.919,364.895 78.927,364.602 79.843 C 364.359 80.602,364.279 80.333,364.254 78.663 C 364.230 77.132,364.332 76.672,364.602 77.089 C 364.997 77.701,365.138 75.864,365.001 71.878 C 364.956 70.560,365.090 70.008,365.458 70.004 C 365.844 69.999,365.826 69.899,365.388 69.617 C 364.995 69.362,364.962 69.233,365.290 69.229 C 365.570 69.226,365.782 68.728,365.782 68.076 C 365.782 67.445,366.003 66.826,366.273 66.699 C 366.667 66.516,366.667 66.424,366.273 66.241 C 365.666 65.957,365.571 59.390,366.175 59.390 C 366.393 59.390,366.568 58.349,366.568 57.054 C 366.568 55.769,366.745 54.608,366.962 54.474 C 367.178 54.340,367.355 53.700,367.355 53.051 C 367.355 52.364,367.190 51.973,366.962 52.114 C 366.716 52.266,366.568 51.455,366.568 49.951 C 366.568 48.447,366.716 47.636,366.962 47.788 C 367.213 47.943,367.355 46.663,367.355 44.229 C 367.355 41.011,367.446 40.462,367.945 40.654 C 368.566 40.892,368.682 39.818,368.540 35.103 C 368.502 33.857,368.645 33.038,368.900 33.038 C 369.132 33.038,369.322 32.522,369.322 31.891 C 369.322 31.260,369.543 30.655,369.813 30.546 C 370.206 30.387,370.206 30.341,369.813 30.316 C 369.216 30.278,369.118 26.352,369.715 26.352 C 369.958 26.352,370.108 24.320,370.108 21.042 C 370.108 17.765,370.259 15.733,370.501 15.733 C 370.728 15.733,370.895 14.495,370.895 12.806 C 370.895 11.196,371.072 9.770,371.288 9.636 C 371.504 9.502,371.669 8.917,371.654 8.335 C 371.629 7.390,371.590 7.361,371.288 8.063 C 371.049 8.619,370.942 8.129,370.922 6.391 C 370.907 4.996,371.065 3.933,371.288 3.933 C 371.504 3.933,371.681 3.048,371.681 1.967 L 371.681 0.000 356.008 -0.000 L 340.335 -0.000 340.076 3.638 M34.883 77.778 C 34.784 78.156,34.703 77.847,34.703 77.089 C 34.703 76.332,34.784 76.023,34.883 76.401 C 34.982 76.780,34.982 77.399,34.883 77.778 M6.429 93.510 C 6.645 93.861,13.691 93.814,14.046 93.460 C 14.180 93.325,12.481 93.215,10.268 93.215 C 8.056 93.215,6.329 93.348,6.429 93.510 M381.566 93.398 C 381.666 93.498,382.797 93.666,384.078 93.770 C 385.599 93.893,386.207 93.832,385.829 93.593 C 385.257 93.231,381.214 93.046,381.566 93.398 M387.734 93.555 C 388.213 93.859,390.167 93.707,390.167 93.366 C 390.167 93.283,389.503 93.218,388.692 93.221 C 387.752 93.225,387.405 93.346,387.734 93.555 M394.100 93.609 C 394.100 93.825,394.366 94.002,394.690 94.002 C 395.015 94.002,395.280 94.179,395.280 94.395 C 395.280 94.612,395.459 94.789,395.677 94.789 C 395.912 94.789,395.873 94.468,395.582 94.002 C 395.071 93.183,394.100 92.925,394.100 93.609 M395.280 102.655 C 395.280 103.634,395.436 104.178,395.674 104.031 C 395.890 103.898,396.067 103.278,396.067 102.655 C 396.067 102.031,395.890 101.412,395.674 101.278 C 395.436 101.131,395.280 101.675,395.280 102.655 M29.981 116.987 C 28.838 118.440,28.687 123.463,28.724 158.895 L 28.756 190.386 29.954 191.752 L 31.153 193.117 92.408 193.117 L 153.664 193.117 154.413 192.289 C 155.374 191.227,155.609 118.580,154.657 116.912 L 154.151 116.028 92.443 116.028 L 30.736 116.028 29.981 116.987 M395.181 141.013 C 394.921 142.367,395.105 142.712,395.746 142.071 C 396.064 141.753,396.081 141.355,395.802 140.730 C 395.415 139.863,395.401 139.870,395.181 141.013 M14.098 174.730 C 14.064 192.522,13.914 206.195,13.766 205.113 L 13.496 203.147 13.434 205.563 C 13.388 207.389,13.517 208.034,13.963 208.205 C 14.484 208.405,14.553 204.600,14.553 175.406 C 14.553 157.241,14.464 142.380,14.356 142.380 C 14.248 142.380,14.131 156.937,14.098 174.730 M13.480 147.886 C 13.480 148.859,13.556 149.258,13.650 148.771 C 13.744 148.284,13.744 147.488,13.650 147.001 C 13.556 146.514,13.480 146.912,13.480 147.886 M182.603 149.844 C 180.534 151.226,179.965 151.871,178.961 153.976 C 177.877 156.246,177.563 157.345,176.594 162.242 C 176.422 163.107,175.449 166.116,174.431 168.928 C 172.687 173.744,172.364 174.893,171.661 178.761 C 171.504 179.626,170.682 182.432,169.836 184.996 C 168.989 187.560,168.117 190.657,167.898 191.879 C 167.436 194.447,166.534 197.458,164.827 202.125 C 164.162 203.943,163.618 205.879,163.618 206.426 C 163.618 208.774,159.909 213.555,158.072 213.575 C 157.705 213.579,157.667 213.678,157.956 213.870 C 158.250 214.066,158.538 219.863,158.848 231.858 C 159.100 241.593,159.478 255.575,159.689 262.930 C 159.900 270.285,160.257 283.382,160.483 292.035 C 160.709 300.688,161.069 313.078,161.283 319.567 C 161.497 326.057,161.844 338.092,162.053 346.313 C 162.262 354.533,162.608 367.719,162.822 375.615 C 163.035 383.510,163.213 390.723,163.218 391.642 L 163.225 393.314 175.242 393.314 L 187.259 393.314 187.034 363.717 C 186.910 347.439,186.639 317.660,186.431 297.542 C 185.888 245.053,185.563 210.836,185.292 177.447 L 185.054 148.207 182.603 149.844 M213.766 160.177 C 213.766 166.721,213.547 195.438,213.279 223.992 C 213.011 252.547,212.613 298.387,212.394 325.860 C 212.175 353.333,211.951 379.749,211.897 384.563 L 211.799 393.314 223.697 393.314 L 235.595 393.314 235.594 392.035 C 235.593 391.332,235.763 386.244,235.972 380.728 C 236.181 375.211,236.537 363.353,236.763 354.376 C 238.062 302.743,238.650 280.483,239.950 233.628 C 240.187 225.084,240.512 217.087,240.672 215.858 L 240.964 213.624 239.326 212.469 C 236.641 210.577,235.486 208.022,233.618 199.842 C 233.153 197.808,232.620 195.861,232.433 195.515 C 231.739 194.236,230.484 190.074,229.871 187.021 C 229.524 185.290,228.619 182.104,227.861 179.941 C 227.104 177.778,226.349 175.473,226.184 174.819 C 226.020 174.165,225.680 173.247,225.430 172.780 C 225.180 172.312,224.975 171.478,224.975 170.926 C 224.975 169.845,224.282 166.667,223.767 165.388 C 223.154 163.867,221.084 157.496,220.444 155.162 C 219.677 152.366,215.842 148.279,213.984 148.279 C 213.864 148.279,213.766 153.633,213.766 160.177 M13.558 174.828 C 13.558 188.456,13.607 193.974,13.667 187.091 C 13.728 180.207,13.728 169.056,13.667 162.312 C 13.607 155.567,13.558 161.200,13.558 174.828 M13.480 201.377 C 13.480 202.350,13.556 202.748,13.650 202.262 C 13.744 201.775,13.744 200.978,13.650 200.492 C 13.556 200.005,13.480 200.403,13.480 201.377 M383.874 209.833 C 383.874 210.157,384.051 210.423,384.267 210.423 C 384.484 210.423,384.661 210.157,384.661 209.833 C 384.661 209.508,384.484 209.243,384.267 209.243 C 384.051 209.243,383.874 209.508,383.874 209.833 M383.088 212.170 C 383.088 212.507,382.911 212.783,382.694 212.783 C 382.478 212.783,382.301 212.960,382.301 213.176 C 382.301 213.820,382.864 213.624,383.378 212.801 C 383.680 212.317,383.715 211.944,383.473 211.794 C 383.261 211.663,383.088 211.832,383.088 212.170 M19.666 214.749 C 19.666 214.966,19.931 215.143,20.256 215.143 C 20.580 215.143,20.846 214.966,20.846 214.749 C 20.846 214.533,20.580 214.356,20.256 214.356 C 19.931 214.356,19.666 214.533,19.666 214.749 M378.368 214.749 C 378.368 214.966,378.633 215.143,378.958 215.143 C 379.282 215.143,379.548 214.966,379.548 214.749 C 379.548 214.533,379.282 214.356,378.958 214.356 C 378.633 214.356,378.368 214.533,378.368 214.749 M49.263 215.069 C 48.007 215.190,47.984 215.228,47.984 217.157 C 47.984 218.367,48.135 219.029,48.378 218.879 C 48.620 218.729,48.771 219.399,48.771 220.626 C 48.771 221.952,48.607 222.618,48.279 222.622 C 47.888 222.626,47.887 222.691,48.277 222.938 C 48.590 223.137,48.782 224.335,48.811 226.275 C 48.853 229.055,49.194 230.039,49.690 228.810 C 49.813 228.505,49.901 228.569,49.920 228.978 C 49.937 229.341,49.654 229.695,49.291 229.765 C 48.673 229.884,48.673 229.934,49.291 230.552 C 49.749 231.010,49.951 231.875,49.951 233.380 C 49.951 234.573,50.128 235.658,50.344 235.792 C 50.560 235.925,50.714 236.599,50.686 237.290 L 50.634 238.545 50.344 237.168 L 50.054 235.792 50.003 237.047 C 49.974 237.737,50.128 238.411,50.344 238.545 C 50.560 238.678,50.740 239.972,50.743 241.419 C 50.748 243.264,50.864 243.875,51.131 243.461 C 51.410 243.029,51.514 243.319,51.518 244.543 C 51.522 245.584,51.346 246.214,51.052 246.214 C 50.685 246.214,50.685 246.319,51.052 246.686 C 51.358 246.992,51.524 248.578,51.524 251.186 C 51.524 253.447,51.697 255.321,51.917 255.457 C 52.141 255.595,52.311 257.559,52.311 260.004 C 52.311 262.610,52.466 264.307,52.704 264.307 C 53.195 264.307,53.210 266.272,52.725 267.039 C 52.508 267.383,52.508 267.874,52.727 268.283 C 52.926 268.654,53.119 269.761,53.156 270.741 C 53.195 271.781,53.402 272.492,53.652 272.447 C 54.285 272.333,54.430 274.581,53.817 275.012 C 53.408 275.300,53.401 275.423,53.786 275.579 C 54.127 275.718,54.277 276.848,54.277 279.285 C 54.277 281.361,54.438 282.793,54.671 282.793 C 54.902 282.793,55.064 284.169,55.064 286.136 C 55.064 288.102,55.226 289.479,55.457 289.479 C 55.684 289.479,55.870 290.854,55.897 292.724 C 55.931 295.056,56.028 295.637,56.244 294.789 C 56.491 293.817,56.552 294.009,56.591 295.870 C 56.622 297.393,56.483 298.132,56.165 298.132 C 55.798 298.132,55.798 298.237,56.165 298.604 C 56.461 298.899,56.637 300.369,56.637 302.537 C 56.637 304.582,56.798 305.998,57.030 305.998 C 57.586 305.998,57.532 310.223,56.974 310.409 C 56.637 310.521,56.637 310.769,56.974 311.399 C 57.221 311.861,57.424 313.042,57.424 314.023 C 57.424 315.446,57.543 315.761,58.014 315.580 C 58.465 315.407,58.604 315.659,58.604 316.651 C 58.604 317.836,58.558 317.885,58.073 317.222 C 57.594 316.566,57.560 316.616,57.724 317.737 C 57.824 318.419,58.063 318.977,58.255 318.977 C 58.447 318.977,58.604 319.951,58.604 321.141 C 58.604 322.330,58.781 323.304,58.997 323.304 C 59.213 323.304,59.390 323.569,59.390 323.894 C 59.390 324.218,59.213 324.484,58.997 324.484 C 58.781 324.484,58.604 324.916,58.604 325.444 C 58.604 325.972,58.781 326.513,58.997 326.647 C 59.213 326.781,59.393 327.897,59.396 329.128 C 59.401 330.777,59.508 331.211,59.804 330.777 C 60.104 330.338,60.193 330.640,60.155 331.957 C 60.037 336.052,60.189 338.289,60.570 338.053 C 60.827 337.895,60.983 340.586,61.019 345.798 C 61.052 350.399,61.195 353.119,61.357 352.212 C 61.636 350.655,61.971 355.768,61.795 358.890 C 61.732 360.011,61.754 360.028,62.317 359.283 C 62.872 358.549,62.906 358.591,62.918 360.022 C 62.928 361.264,62.814 361.495,62.291 361.294 C 61.700 361.067,61.700 361.123,62.291 362.025 C 62.667 362.600,62.930 363.815,62.930 364.981 C 62.930 366.070,63.107 366.962,63.324 366.962 C 63.560 366.962,63.719 368.572,63.723 370.993 C 63.727 373.741,63.850 374.837,64.110 374.435 C 64.440 373.924,64.492 373.933,64.497 374.500 C 64.501 374.861,64.282 375.259,64.012 375.385 C 63.618 375.569,63.618 375.660,64.012 375.844 C 64.336 375.995,64.503 377.007,64.503 378.817 C 64.503 380.546,64.649 381.471,64.897 381.318 C 65.125 381.176,65.278 381.537,65.262 382.179 C 65.238 383.151,65.194 383.189,64.897 382.498 C 64.571 381.739,64.558 381.742,64.531 382.573 C 64.516 383.047,64.680 383.544,64.897 383.677 C 65.123 383.818,65.290 385.910,65.290 388.617 L 65.290 393.314 78.260 393.314 L 91.229 393.314 91.063 392.232 C 90.809 390.576,89.976 380.543,88.884 365.978 C 88.391 359.405,87.954 354.140,86.875 341.790 C 86.430 336.706,85.914 330.511,85.727 328.024 C 85.540 325.536,85.197 321.111,84.965 318.191 C 84.734 315.270,84.373 310.580,84.164 307.768 C 83.539 299.367,83.056 293.591,82.390 286.529 C 82.043 282.852,81.600 277.719,81.406 275.123 C 81.212 272.527,80.862 267.925,80.629 264.897 C 80.396 261.868,80.045 257.266,79.848 254.671 C 79.226 246.475,78.680 239.931,78.059 233.235 C 76.985 221.653,76.631 215.426,77.032 215.179 C 77.413 214.943,51.625 214.841,49.263 215.069 M103.146 215.203 C 103.539 215.446,103.716 217.524,104.592 232.252 C 105.463 246.906,106.228 259.393,106.602 265.093 C 106.823 268.446,107.184 274.022,107.406 277.483 C 107.629 280.944,107.967 286.077,108.159 288.889 C 108.772 297.894,109.694 312.502,110.528 326.450 C 111.546 343.462,112.357 355.981,113.256 368.535 C 113.465 371.455,113.822 377.384,114.048 381.711 C 114.275 386.037,114.564 390.418,114.691 391.445 L 114.921 393.314 127.131 393.314 L 139.341 393.314 139.081 390.069 C 138.937 388.284,138.643 382.665,138.426 377.581 C 138.210 372.498,137.857 364.356,137.642 359.489 C 137.428 354.621,137.088 346.391,136.889 341.200 C 136.689 336.008,136.421 329.902,136.293 327.630 C 136.165 325.359,135.801 317.571,135.485 310.324 C 135.168 303.078,134.737 293.963,134.528 290.069 C 134.319 286.175,133.960 278.653,133.732 273.353 C 133.503 268.053,133.148 260.000,132.943 255.457 C 132.737 250.914,132.368 242.242,132.121 236.185 C 131.875 230.128,131.559 222.916,131.419 220.158 C 131.255 216.926,131.305 215.081,131.561 214.965 C 131.779 214.866,125.381 214.821,117.344 214.865 C 109.307 214.910,102.918 215.061,103.146 215.203 M267.974 215.044 C 268.132 215.312,267.822 222.573,266.660 245.821 C 266.438 250.256,266.085 258.132,265.875 263.324 C 265.665 268.515,265.315 276.834,265.096 281.809 C 264.878 286.785,264.526 295.015,264.313 300.098 C 263.957 308.620,263.311 322.225,262.324 341.986 C 261.953 349.428,261.720 354.826,260.789 377.581 C 260.572 382.881,260.278 388.589,260.136 390.265 L 259.879 393.314 271.926 393.314 L 283.972 393.314 283.972 391.669 C 283.972 390.764,284.142 388.507,284.349 386.654 C 284.555 384.801,284.913 379.921,285.144 375.811 C 286.239 356.271,287.950 328.673,288.691 318.584 C 289.158 312.238,289.714 303.586,290.258 294.199 C 291.288 276.445,292.464 257.673,293.018 250.147 C 293.456 244.186,293.985 235.975,294.588 225.762 C 294.811 221.976,295.082 217.950,295.190 216.814 L 295.385 214.749 281.593 214.749 C 274.007 214.749,267.879 214.882,267.974 215.044 M322.706 215.130 C 322.839 215.344,322.769 217.338,322.551 219.559 C 322.333 221.781,321.962 226.254,321.727 229.499 C 321.492 232.743,321.133 237.257,320.929 239.528 C 319.832 251.721,319.016 261.504,318.206 272.173 C 317.243 284.868,316.969 288.352,316.609 292.429 C 316.399 294.808,315.958 299.941,315.628 303.835 C 315.298 307.729,314.861 312.861,314.657 315.241 C 314.453 317.620,314.098 322.134,313.868 325.270 C 313.056 336.346,312.318 345.426,310.931 361.455 C 310.415 367.404,309.791 375.103,309.542 378.564 C 309.294 382.026,308.926 386.488,308.724 388.480 C 308.523 390.473,308.358 392.375,308.358 392.708 C 308.358 393.240,309.836 393.314,320.551 393.314 L 332.743 393.314 332.743 391.347 C 332.743 389.861,332.888 389.381,333.333 389.381 C 333.761 389.381,333.923 388.941,333.923 387.781 C 333.923 386.902,334.118 385.819,334.356 385.374 C 334.670 384.786,334.670 384.639,334.356 384.833 C 334.072 385.009,333.923 384.612,333.923 383.677 C 333.923 382.829,334.082 382.353,334.317 382.498 C 334.554 382.644,334.710 382.116,334.710 381.167 C 334.710 380.302,334.865 379.498,335.054 379.381 C 335.243 379.264,335.398 378.726,335.398 378.185 C 335.398 377.645,335.243 377.298,335.054 377.415 C 334.865 377.532,334.710 376.987,334.710 376.205 C 334.710 375.356,334.869 374.880,335.103 375.025 C 335.330 375.165,335.497 374.793,335.497 374.143 C 335.497 373.525,335.718 372.784,335.988 372.498 C 336.382 372.081,336.382 371.940,335.988 371.796 C 335.646 371.671,335.498 370.580,335.503 368.207 C 335.507 365.861,335.627 364.982,335.890 365.388 C 336.153 365.796,336.273 364.974,336.277 362.734 C 336.281 360.837,336.447 359.489,336.676 359.489 C 336.893 359.489,337.057 359.090,337.042 358.604 C 337.016 357.759,336.999 357.755,336.676 358.505 C 336.447 359.038,336.330 358.302,336.311 356.221 C 336.293 354.267,336.426 353.238,336.676 353.392 C 336.914 353.539,337.070 353.011,337.070 352.062 C 337.070 351.197,337.247 350.380,337.463 350.246 C 337.679 350.112,337.856 349.826,337.856 349.609 C 337.856 349.393,337.679 349.325,337.463 349.459 C 337.221 349.609,337.070 348.939,337.070 347.712 C 337.070 345.700,337.658 344.979,337.972 346.608 C 338.076 347.145,338.164 346.903,338.196 345.992 C 338.226 345.166,338.443 344.130,338.680 343.688 C 338.990 343.107,338.990 342.766,338.680 342.455 C 338.132 341.908,338.116 339.146,338.659 338.966 C 338.902 338.884,339.070 337.354,339.074 335.186 C 339.077 333.000,339.228 331.636,339.451 331.773 C 339.678 331.914,339.823 329.855,339.823 326.497 C 339.823 323.250,339.984 320.891,340.216 320.747 C 340.433 320.614,340.610 319.198,340.610 317.601 C 340.610 316.004,340.787 314.588,341.003 314.454 C 341.219 314.321,341.394 314.000,341.390 313.743 C 341.387 313.461,341.232 313.510,341.003 313.864 C 340.734 314.281,340.620 313.740,340.616 312.029 C 340.612 310.615,340.789 309.543,341.041 309.460 C 341.315 309.368,341.468 307.895,341.463 305.396 C 341.458 303.239,341.545 301.696,341.655 301.967 C 342.052 302.941,342.501 302.426,342.683 300.787 C 342.785 299.867,342.970 298.712,343.095 298.220 C 343.226 297.702,343.164 297.421,342.949 297.554 C 342.744 297.681,342.576 297.233,342.576 296.559 C 342.576 295.841,342.739 295.433,342.970 295.575 C 343.368 295.822,343.491 294.063,343.366 289.928 C 343.323 288.510,343.440 287.907,343.726 288.083 C 344.005 288.256,344.149 287.740,344.149 286.575 C 344.149 285.602,344.326 284.696,344.543 284.562 C 344.759 284.429,344.915 283.843,344.890 283.261 L 344.843 282.203 344.543 283.382 C 344.334 284.203,344.230 283.485,344.202 281.023 C 344.174 278.607,344.283 277.670,344.543 278.073 C 344.808 278.483,344.926 277.789,344.930 275.788 C 344.934 273.973,345.081 273.003,345.329 273.156 C 345.556 273.297,345.720 272.932,345.717 272.295 C 345.712 271.437,345.625 271.322,345.329 271.780 C 345.066 272.187,344.946 271.357,344.942 269.102 C 344.938 267.022,345.079 265.922,345.329 266.077 C 345.563 266.221,345.723 265.753,345.723 264.920 C 345.723 264.150,345.900 263.520,346.116 263.520 C 346.332 263.520,346.509 263.255,346.509 262.930 C 346.509 262.606,346.332 262.340,346.116 262.340 C 345.619 262.340,345.595 259.319,346.091 259.013 C 346.293 258.888,346.530 259.364,346.618 260.071 C 346.705 260.778,346.805 260.151,346.840 258.676 C 346.874 257.202,347.097 255.632,347.335 255.187 C 347.650 254.600,347.650 254.452,347.335 254.646 C 347.044 254.827,346.920 254.361,346.954 253.219 L 347.006 251.524 347.296 252.901 C 347.517 253.952,347.598 253.518,347.638 251.065 C 347.672 248.924,347.853 247.777,348.181 247.624 C 348.574 247.440,348.574 247.348,348.181 247.165 C 347.889 247.029,347.710 246.269,347.741 245.297 L 347.793 243.658 348.083 245.034 C 348.324 246.181,348.381 245.972,348.424 243.789 C 348.457 242.101,348.651 241.096,348.968 240.968 C 349.361 240.810,349.361 240.764,348.968 240.739 C 348.615 240.717,348.476 239.756,348.476 237.342 C 348.476 235.197,348.619 234.063,348.869 234.218 C 349.125 234.376,349.263 232.348,349.263 228.420 C 349.263 224.752,349.424 222.218,349.673 221.969 C 349.912 221.730,350.035 220.183,349.968 218.253 L 349.853 214.946 336.158 214.842 C 327.167 214.775,322.547 214.873,322.706 215.130 M350.805 216.420 C 350.688 217.266,350.748 217.748,350.946 217.550 C 351.135 217.360,351.227 216.697,351.150 216.075 C 351.020 215.036,350.993 215.063,350.805 216.420 M52.200 252.404 C 52.109 253.001,52.033 252.606,52.030 251.524 C 52.027 250.442,52.101 249.953,52.194 250.437 C 52.288 250.921,52.290 251.806,52.200 252.404 M54.942 281.514 C 54.843 281.893,54.762 281.583,54.762 280.826 C 54.762 280.069,54.843 279.759,54.942 280.138 C 55.041 280.516,55.041 281.136,54.942 281.514 " stroke="none" fill="#d2203e" fill-rule="evenodd"></path><path id="path3" d="M59.170 2.262 C 59.307 3.505,59.586 6.647,59.790 9.243 C 59.994 11.839,60.429 16.883,60.758 20.452 C 61.087 24.022,61.543 29.420,61.771 32.448 C 61.999 35.477,62.354 40.079,62.559 42.675 C 62.765 45.270,63.109 49.695,63.323 52.507 C 63.926 60.427,64.433 66.477,65.086 73.550 C 65.416 77.119,65.864 82.497,66.082 85.501 C 66.566 92.175,66.854 94.115,67.414 94.479 C 67.991 94.854,94.929 94.795,95.540 94.417 C 95.909 94.189,95.927 93.008,95.618 89.244 C 94.969 81.326,93.616 60.890,92.834 47.198 C 92.606 43.196,92.252 37.266,92.049 34.022 C 91.846 30.777,91.488 24.936,91.254 21.042 C 91.019 17.148,90.657 12.231,90.448 10.114 C 90.240 7.997,90.069 4.855,90.069 3.132 L 90.069 0.000 74.494 -0.000 L 58.920 -0.000 59.170 2.262 M121.680 5.015 C 121.822 7.773,122.116 14.100,122.334 19.076 C 122.553 24.051,122.908 31.927,123.123 36.578 C 123.339 41.229,123.685 49.282,123.892 54.474 C 124.099 59.666,124.463 68.073,124.701 73.156 C 124.939 78.240,125.253 85.143,125.399 88.496 L 125.664 94.592 140.128 94.695 C 153.420 94.790,154.614 94.744,154.849 94.132 C 155.092 93.499,154.608 69.978,153.778 42.085 C 153.569 35.054,153.208 22.756,152.975 14.755 C 152.550 0.172,152.482 -0.668,151.804 0.405 C 151.556 0.797,151.436 0.825,151.432 0.492 C 151.427 0.107,148.293 0.000,137.089 0.000 L 122.753 0.000 122.867 4.031 C 122.930 6.249,122.850 8.505,122.690 9.046 C 122.524 9.607,122.382 7.873,122.360 5.015 C 122.333 1.544,122.182 0.000,121.872 0.000 C 121.546 0.000,121.493 1.370,121.680 5.015 M183.816 4.425 C 183.950 6.858,184.174 27.876,184.313 51.131 C 184.456 75.071,184.720 93.711,184.922 94.100 C 185.383 94.991,213.662 95.181,214.234 94.297 C 214.409 94.027,214.668 76.726,214.808 55.851 C 214.949 34.975,215.160 13.869,215.277 8.948 C 215.409 3.453,215.348 0.000,215.120 0.000 C 214.896 0.000,214.741 5.162,214.727 13.078 C 214.715 20.270,214.638 28.810,214.557 32.055 C 214.475 35.300,214.293 50.325,214.152 65.444 C 214.011 80.563,213.803 93.174,213.690 93.468 C 213.523 93.904,210.934 94.002,199.572 94.002 L 185.659 94.002 185.470 93.117 C 185.319 92.413,184.444 14.175,184.460 2.852 C 184.463 0.983,184.310 0.000,184.017 0.000 C 183.696 0.000,183.639 1.240,183.816 4.425 M246.055 10.914 C 245.771 23.393,245.231 42.457,244.605 62.144 C 244.367 69.607,244.146 79.961,244.112 85.152 L 244.051 94.592 258.693 94.695 L 273.336 94.798 273.516 93.908 C 273.698 93.015,273.865 89.486,274.534 72.370 C 274.899 63.051,275.194 56.716,276.301 34.415 C 277.762 4.974,277.912 0.000,277.337 -0.000 C 277.148 -0.000,276.875 3.938,276.730 8.751 C 276.278 23.681,275.837 34.364,275.184 46.214 C 274.334 61.611,273.759 73.589,273.371 83.972 C 273.193 88.732,272.920 92.935,272.765 93.314 C 272.363 94.293,244.764 94.386,244.389 93.410 C 244.264 93.084,244.364 87.642,244.611 81.316 C 245.054 69.955,245.524 54.585,246.228 28.515 C 246.426 21.160,246.707 11.735,246.853 7.571 C 247.031 2.451,246.985 0.000,246.710 0.000 C 246.446 0.000,246.217 3.824,246.055 10.914 M308.747 0.688 C 308.737 2.341,307.405 23.842,306.366 39.135 C 306.161 42.163,305.820 47.473,305.609 50.934 C 305.399 54.395,305.055 59.794,304.845 62.930 C 304.467 68.583,303.300 88.843,303.134 92.625 L 303.048 94.592 317.796 94.592 L 332.543 94.592 333.016 89.872 C 333.519 84.842,334.076 78.390,334.696 70.403 C 335.733 57.032,335.962 54.173,336.713 45.231 C 337.159 39.931,337.677 33.648,337.864 31.268 C 338.052 28.889,338.396 24.730,338.630 22.026 C 339.972 6.527,340.371 -0.502,339.840 0.705 C 339.621 1.200,339.251 4.298,339.017 7.588 C 338.783 10.878,338.422 15.959,338.215 18.879 C 337.521 28.667,337.075 34.404,336.899 35.792 C 336.584 38.278,334.850 58.832,334.328 66.273 C 333.669 75.659,333.170 82.198,332.901 84.956 C 332.763 86.362,332.539 88.928,332.402 90.659 L 332.153 93.805 318.216 93.909 C 310.550 93.966,304.149 93.877,303.991 93.712 C 303.698 93.405,303.926 88.226,304.982 71.190 C 305.310 65.890,305.776 58.368,306.017 54.474 C 306.614 44.828,307.088 37.464,307.549 30.678 C 307.761 27.542,308.115 22.055,308.334 18.486 C 308.553 14.916,308.910 9.872,309.129 7.276 C 309.631 1.301,309.634 0.000,309.145 0.000 C 308.928 0.000,308.749 0.310,308.747 0.688 M26.719 1.868 C 26.704 2.030,26.624 2.910,26.541 3.823 C 26.458 4.737,26.516 5.561,26.668 5.656 C 26.821 5.750,26.997 4.870,27.058 3.700 C 27.143 2.060,26.847 0.458,26.719 1.868 M152.137 7.558 C 151.990 11.259,151.423 10.638,151.451 6.808 C 151.470 4.189,151.568 3.573,151.852 4.284 C 152.059 4.802,152.187 6.275,152.137 7.558 M370.895 6.359 C 370.895 9.289,371.279 9.156,371.566 6.127 C 371.706 4.648,371.631 3.933,371.335 3.933 C 371.058 3.933,370.895 4.833,370.895 6.359 M27.716 10.816 C 27.615 11.141,27.455 11.657,27.360 11.964 C 27.266 12.270,27.443 12.619,27.753 12.738 C 28.178 12.901,28.319 12.615,28.319 11.590 C 28.319 10.169,28.033 9.802,27.716 10.816 M152.090 13.274 C 151.991 13.653,151.910 13.343,151.910 12.586 C 151.910 11.829,151.991 11.519,152.090 11.898 C 152.189 12.276,152.189 12.896,152.090 13.274 M370.108 19.141 C 370.108 21.016,370.214 22.445,370.342 22.316 C 370.803 21.855,370.984 15.733,370.537 15.733 C 370.261 15.733,370.108 16.944,370.108 19.141 M28.507 18.918 C 28.359 19.588,28.390 20.287,28.574 20.471 C 28.758 20.654,28.957 20.106,29.016 19.252 C 29.145 17.396,28.879 17.222,28.507 18.918 M29.466 24.877 C 29.163 25.800,29.174 27.139,29.485 27.139 C 29.709 27.139,29.892 26.608,29.892 25.959 C 29.892 25.019,29.635 24.365,29.466 24.877 M369.322 28.319 C 369.322 29.400,369.475 30.285,369.662 30.285 C 369.850 30.285,370.003 29.400,370.003 28.319 C 370.003 27.237,369.850 26.352,369.662 26.352 C 369.475 26.352,369.322 27.237,369.322 28.319 M30.185 32.743 C 30.084 33.014,30.141 33.589,30.312 34.022 C 30.565 34.662,30.628 34.571,30.651 33.530 C 30.680 32.201,30.501 31.900,30.185 32.743 M368.535 35.070 C 368.535 36.188,368.668 36.970,368.830 36.808 C 369.233 36.405,369.255 33.038,368.855 33.038 C 368.679 33.038,368.535 33.953,368.535 35.070 M367.355 42.917 C 367.355 44.769,367.467 45.276,367.804 44.939 C 368.418 44.325,368.440 40.808,367.832 40.605 C 367.492 40.491,367.355 41.157,367.355 42.917 M31.131 47.854 C 31.098 48.323,30.957 49.031,30.817 49.427 C 30.621 49.981,30.674 50.045,31.045 49.704 C 31.310 49.460,31.451 48.752,31.358 48.131 C 31.239 47.335,31.172 47.253,31.131 47.854 M366.568 49.951 C 366.568 51.455,366.716 52.266,366.962 52.114 C 367.178 51.980,367.355 51.007,367.355 49.951 C 367.355 48.895,367.178 47.921,366.962 47.788 C 366.716 47.636,366.568 48.447,366.568 49.951 M31.748 55.049 C 31.637 55.474,31.794 56.027,32.096 56.278 C 32.546 56.651,32.645 56.512,32.645 55.505 C 32.645 54.142,32.063 53.846,31.748 55.049 M365.782 62.734 C 365.782 64.572,365.926 66.077,366.102 66.077 C 366.278 66.077,366.459 64.572,366.504 62.734 C 366.554 60.668,366.432 59.390,366.183 59.390 C 365.942 59.390,365.782 60.721,365.782 62.734 M32.645 62.930 C 32.645 63.910,32.800 64.454,33.038 64.307 C 33.255 64.173,33.432 63.554,33.432 62.930 C 33.432 62.307,33.255 61.687,33.038 61.554 C 32.800 61.407,32.645 61.951,32.645 62.930 M33.795 68.535 C 33.546 69.348,33.573 70.051,33.860 70.228 C 34.057 70.350,34.218 69.997,34.218 69.443 C 34.218 68.642,33.943 68.052,33.795 68.535 M364.995 71.780 C 364.995 72.753,365.174 73.550,365.392 73.550 C 365.616 73.550,365.745 72.777,365.687 71.782 C 365.554 69.482,364.995 69.480,364.995 71.780 M34.534 77.310 C 34.444 78.080,34.479 78.778,34.612 78.860 C 34.745 78.942,34.895 78.312,34.945 77.459 C 35.059 75.527,34.755 75.417,34.534 77.310 M364.242 78.696 C 364.271 80.494,364.328 80.654,364.608 79.719 C 364.932 78.641,364.838 77.195,364.417 76.774 C 364.303 76.659,364.224 77.524,364.242 78.696 M126.401 88.436 C 126.211 91.875,125.862 90.478,125.916 86.496 C 125.962 83.060,126.013 82.748,126.233 84.562 C 126.377 85.752,126.453 87.495,126.401 88.436 M363.029 86.112 C 363.029 87.017,363.217 87.709,363.464 87.709 C 363.703 87.709,363.797 87.443,363.673 87.119 C 363.548 86.794,363.601 86.529,363.791 86.529 C 364.207 86.529,363.861 85.030,363.374 84.730 C 363.184 84.612,363.029 85.234,363.029 86.112 M35.436 88.889 C 35.379 89.646,35.288 90.670,35.233 91.164 C 35.175 91.694,35.279 91.919,35.487 91.711 C 35.681 91.517,35.772 90.493,35.690 89.435 C 35.568 87.866,35.521 87.766,35.436 88.889 M362.242 92.632 L 362.242 94.015 372.710 93.988 C 378.468 93.974,383.093 93.876,382.988 93.771 C 382.614 93.397,379.632 93.260,371.386 93.238 L 363.029 93.215 363.029 92.232 C 363.029 91.691,362.852 91.249,362.635 91.249 C 362.419 91.249,362.242 91.871,362.242 92.632 M4.326 93.609 C 3.889 93.892,4.123 93.991,5.235 93.996 C 6.135 94.000,6.636 93.845,6.490 93.609 C 6.182 93.112,5.096 93.112,4.326 93.609 M13.569 93.626 C 12.952 93.877,13.101 93.953,14.258 93.974 C 15.069 93.990,15.733 93.863,15.733 93.692 C 15.733 93.271,14.530 93.234,13.569 93.626 M16.519 93.653 C 16.519 93.847,20.813 94.002,26.155 94.002 C 32.568 94.002,35.792 93.865,35.792 93.593 C 35.792 93.319,32.606 93.203,26.155 93.244 C 20.855 93.277,16.519 93.461,16.519 93.653 M385.841 93.609 C 386.165 93.818,386.873 93.990,387.414 93.990 C 388.192 93.990,388.274 93.910,387.807 93.609 C 387.483 93.399,386.775 93.227,386.234 93.227 C 385.456 93.227,385.374 93.307,385.841 93.609 M389.381 93.613 C 388.689 93.832,389.243 93.935,391.249 93.963 C 392.817 93.984,394.100 93.848,394.100 93.660 C 394.100 93.231,390.699 93.198,389.381 93.613 M395.440 110.521 C 395.440 114.090,395.500 115.551,395.573 113.766 C 395.646 111.981,395.646 109.061,395.573 107.276 C 395.500 105.492,395.440 106.952,395.440 110.521 M13.671 174.503 C 13.726 192.171,13.859 206.714,13.966 206.820 C 14.072 206.927,14.159 192.471,14.159 174.697 C 14.159 156.922,14.027 142.380,13.864 142.379 C 13.702 142.379,13.615 156.835,13.671 174.503 M185.877 148.169 C 185.032 148.385,185.240 202.197,186.446 294.985 C 186.656 311.101,186.827 331.986,186.826 341.396 C 186.824 367.111,187.281 393.314,187.730 393.314 C 187.978 393.314,188.020 388.535,187.848 379.843 C 187.579 366.288,187.206 322.376,186.475 218.486 C 186.258 187.552,185.957 159.370,185.806 155.860 C 185.442 147.387,183.811 148.279,199.665 148.279 L 212.802 148.279 213.208 149.347 C 213.433 149.940,213.508 151.469,213.376 152.788 C 213.246 154.094,212.964 176.755,212.749 203.147 C 212.535 229.538,212.205 267.768,212.015 288.102 C 211.375 356.800,211.209 393.515,211.542 392.527 C 211.725 391.986,211.989 374.464,212.130 353.589 C 212.460 304.890,213.056 238.566,213.615 188.426 C 214.038 150.485,214.028 148.906,213.344 148.406 C 212.641 147.892,187.799 147.678,185.877 148.169 M16.126 213.081 C 16.126 213.246,16.480 213.601,16.912 213.871 C 17.827 214.443,17.949 214.157,17.137 213.345 C 16.517 212.725,16.126 212.623,16.126 213.081 M240.889 213.988 C 240.592 214.469,240.066 227.516,239.534 247.591 C 239.305 256.244,238.941 269.695,238.724 277.483 C 238.508 285.270,238.160 298.722,237.951 307.375 C 236.896 351.025,236.064 381.408,235.744 387.906 C 235.549 391.871,235.598 393.314,235.930 393.314 C 236.230 393.314,236.386 392.291,236.394 390.265 C 236.401 388.589,236.577 381.465,236.785 374.435 C 237.623 346.074,238.002 332.639,238.366 318.387 C 239.373 278.976,239.554 271.646,239.901 256.441 C 240.349 236.766,241.115 214.621,241.356 214.371 C 241.452 214.271,241.874 214.404,242.294 214.666 C 242.849 215.013,246.382 215.143,255.255 215.143 L 267.453 215.143 267.453 219.112 C 267.453 221.295,267.279 225.145,267.067 227.667 C 266.854 230.188,266.412 238.446,266.084 246.018 C 265.755 253.589,265.389 261.023,265.270 262.537 C 265.150 264.051,264.877 269.715,264.662 275.123 C 264.448 280.531,264.105 288.938,263.900 293.805 C 263.695 298.673,263.358 307.345,263.150 313.078 C 262.942 318.810,262.673 324.739,262.553 326.254 C 262.433 327.768,262.071 334.848,261.749 341.986 C 261.426 349.125,261.061 356.382,260.936 358.112 C 260.258 367.518,259.471 394.610,259.980 391.021 C 260.174 389.652,260.528 383.811,260.766 378.042 C 261.004 372.272,261.363 363.569,261.565 358.702 C 261.766 353.835,262.107 346.313,262.324 341.986 C 263.295 322.574,263.956 308.648,264.313 300.098 C 264.526 295.015,264.878 286.785,265.096 281.809 C 265.315 276.834,265.665 268.515,265.875 263.324 C 266.085 258.132,266.438 250.256,266.660 245.821 C 267.822 222.573,268.132 215.312,267.974 215.044 C 267.879 214.882,262.523 214.749,256.073 214.749 C 246.848 214.749,244.003 214.628,242.734 214.180 C 241.748 213.832,241.031 213.758,240.889 213.988 M156.146 214.356 C 155.799 214.580,150.741 214.740,143.887 214.743 C 129.561 214.751,131.111 214.077,131.419 220.163 C 131.559 222.918,131.875 230.128,132.121 236.185 C 132.368 242.242,132.737 250.914,132.943 255.457 C 133.148 260.000,133.503 268.053,133.732 273.353 C 133.960 278.653,134.319 286.175,134.528 290.069 C 134.737 293.963,135.168 303.078,135.485 310.324 C 135.801 317.571,136.165 325.359,136.293 327.630 C 136.421 329.902,136.689 336.008,136.889 341.200 C 137.088 346.391,137.428 354.621,137.642 359.489 C 137.857 364.356,138.210 372.498,138.426 377.581 C 138.937 389.577,139.259 393.511,139.677 392.852 C 139.926 392.459,140.009 392.452,140.014 392.822 C 140.018 393.204,142.615 393.314,151.668 393.314 L 163.317 393.314 163.075 384.759 C 162.942 380.054,162.654 369.125,162.435 360.472 C 162.216 351.819,161.858 339.164,161.640 332.350 C 161.018 312.935,160.094 279.556,159.302 247.934 C 158.354 210.102,158.605 212.767,156.146 214.356 M77.167 215.086 C 76.610 215.439,76.838 220.072,78.059 233.235 C 78.680 239.931,79.226 246.475,79.848 254.671 C 80.045 257.266,80.396 261.868,80.629 264.897 C 80.862 267.925,81.212 272.527,81.406 275.123 C 81.600 277.719,82.043 282.852,82.390 286.529 C 83.056 293.591,83.539 299.367,84.164 307.768 C 84.373 310.580,84.734 315.270,84.965 318.191 C 85.197 321.111,85.540 325.536,85.727 328.024 C 85.914 330.511,86.430 336.706,86.875 341.790 C 87.964 354.255,88.395 359.457,88.882 365.978 C 89.924 379.961,90.874 391.341,91.089 392.429 L 91.264 393.314 103.093 393.314 L 114.921 393.314 114.691 391.445 C 114.564 390.418,114.275 386.037,114.048 381.711 C 113.822 377.384,113.465 371.455,113.256 368.535 C 112.348 355.853,111.556 343.636,110.528 326.450 C 109.694 312.502,108.772 297.894,108.159 288.889 C 107.967 286.077,107.629 280.944,107.406 277.483 C 107.184 274.022,106.823 268.446,106.602 265.093 C 106.228 259.393,105.463 246.906,104.592 232.252 C 103.637 216.195,103.569 215.465,103.009 215.110 C 102.313 214.670,77.860 214.647,77.167 215.086 M295.223 216.421 C 295.111 217.340,294.829 221.455,294.595 225.565 C 294.084 234.543,293.543 242.963,293.016 250.147 C 292.460 257.727,291.280 276.572,290.258 294.199 C 289.714 303.586,289.158 312.238,288.691 318.584 C 287.950 328.673,286.239 356.271,285.144 375.811 C 284.913 379.921,284.555 384.801,284.349 386.654 C 284.142 388.507,283.993 390.808,284.018 391.767 L 284.063 393.510 284.412 391.937 C 284.603 391.072,284.928 387.709,285.134 384.464 C 285.340 381.219,285.698 375.821,285.929 372.468 C 286.525 363.825,287.004 356.159,287.709 343.953 C 288.290 333.895,288.638 328.367,289.491 315.634 C 290.957 293.753,291.938 278.364,292.864 262.734 C 293.558 251.029,293.977 244.421,294.574 235.792 C 295.081 228.463,295.732 217.668,295.755 216.224 L 295.772 215.143 308.959 215.143 L 322.146 215.143 321.938 217.699 C 321.824 219.105,321.630 221.450,321.506 222.911 C 321.382 224.371,321.107 228.043,320.894 231.072 C 320.098 242.376,319.782 246.520,319.407 250.541 C 319.195 252.812,318.837 256.883,318.610 259.587 C 318.384 262.291,318.026 266.273,317.815 268.437 C 317.604 270.600,317.243 275.202,317.014 278.663 C 316.785 282.124,316.500 285.841,316.382 286.922 C 316.264 288.004,315.997 291.367,315.788 294.395 C 315.151 303.648,313.942 317.959,313.678 319.371 C 313.576 319.912,313.225 324.071,312.897 328.614 C 312.569 333.156,312.200 338.024,312.077 339.430 C 311.953 340.836,311.688 344.464,311.487 347.493 C 311.047 354.136,310.479 361.011,310.172 363.422 C 310.048 364.395,309.674 368.555,309.341 372.665 C 309.008 376.775,308.562 381.870,308.350 383.987 C 307.965 387.829,307.824 393.591,308.122 393.281 C 308.319 393.076,308.971 386.307,309.540 378.564 C 309.778 375.320,310.405 367.620,310.933 361.455 C 312.532 342.790,312.976 337.327,313.875 325.270 C 314.296 319.615,315.088 309.983,315.848 301.278 C 316.984 288.266,317.011 287.926,318.206 272.173 C 319.016 261.504,319.832 251.721,320.929 239.528 C 321.133 237.257,321.492 232.743,321.727 229.499 C 321.962 226.254,322.333 221.781,322.551 219.559 C 322.769 217.338,322.840 215.347,322.709 215.135 C 322.561 214.895,317.355 214.749,308.949 214.749 L 295.427 214.749 295.223 216.421 M148.771 215.437 C 145.905 215.504,141.214 215.504,138.348 215.437 C 135.482 215.369,137.827 215.314,143.559 215.314 C 149.292 215.314,151.637 215.369,148.771 215.437 M156.181 215.506 C 155.876 215.699,155.390 215.765,155.100 215.654 C 154.268 215.335,154.479 215.142,155.654 215.149 C 156.441 215.153,156.585 215.250,156.181 215.506 M350.055 216.814 C 350.060 218.038,350.163 218.328,350.442 217.896 C 350.944 217.119,350.944 215.143,350.442 215.143 C 350.226 215.143,350.052 215.895,350.055 216.814 M48.337 218.977 C 48.150 220.320,48.238 222.615,48.476 222.615 C 48.638 222.615,48.771 221.731,48.771 220.649 C 48.771 219.016,48.484 217.913,48.337 218.977 M349.525 222.091 C 349.381 222.235,349.263 223.681,349.263 225.303 C 349.263 229.080,349.823 228.611,349.928 224.748 C 350.008 221.776,349.986 221.630,349.525 222.091 M348.476 237.342 C 348.476 239.193,348.609 240.708,348.771 240.708 C 349.207 240.707,349.278 234.471,348.846 234.204 C 348.626 234.068,348.476 235.341,348.476 237.342 M50.313 237.070 C 50.501 238.428,50.528 238.455,50.658 237.415 C 50.736 236.794,50.644 236.130,50.454 235.941 C 50.256 235.743,50.196 236.225,50.313 237.070 M50.967 243.953 C 50.712 245.212,50.814 246.214,51.196 246.214 C 51.377 246.214,51.524 245.506,51.524 244.641 C 51.524 242.912,51.247 242.569,50.967 243.953 M347.689 245.362 C 347.689 246.264,347.855 247.001,348.058 247.001 C 348.262 247.001,348.325 246.343,348.199 245.526 C 347.884 243.484,347.689 243.421,347.689 245.362 M52.030 251.524 C 52.033 252.606,52.109 253.001,52.200 252.404 C 52.290 251.806,52.288 250.921,52.194 250.437 C 52.101 249.953,52.027 250.442,52.030 251.524 M346.903 253.317 C 346.903 254.195,347.045 254.825,347.220 254.718 C 347.524 254.529,347.371 251.721,347.056 251.721 C 346.972 251.721,346.903 252.439,346.903 253.317 M346.018 259.026 C 345.564 259.486,345.668 262.340,346.139 262.340 C 346.368 262.340,346.456 262.178,346.333 261.980 C 346.211 261.783,346.247 261.561,346.412 261.489 C 346.578 261.416,346.623 260.765,346.513 260.042 C 346.403 259.319,346.180 258.862,346.018 259.026 M52.488 265.874 C 52.478 266.772,52.601 267.233,52.777 266.955 C 53.172 266.334,53.191 264.306,52.802 264.308 C 52.640 264.309,52.499 265.014,52.488 265.874 M344.942 269.102 C 344.946 271.357,345.066 272.187,345.329 271.780 C 345.833 271.001,345.833 266.388,345.329 266.077 C 345.079 265.922,344.938 267.022,344.942 269.102 M53.287 272.577 C 53.146 272.807,53.237 273.244,53.491 273.550 C 53.744 273.855,53.838 274.290,53.698 274.516 C 53.558 274.742,53.632 274.926,53.861 274.926 C 54.374 274.926,54.418 272.700,53.911 272.387 C 53.710 272.262,53.429 272.348,53.287 272.577 M134.804 279.338 C 134.724 280.481,134.658 279.646,134.657 277.483 C 134.656 275.320,134.721 274.384,134.802 275.405 C 134.883 276.425,134.883 278.195,134.804 279.338 M344.202 281.023 C 344.230 283.485,344.334 284.203,344.543 283.382 C 344.982 281.656,344.982 278.753,344.543 278.073 C 344.283 277.670,344.174 278.607,344.202 281.023 M54.762 280.826 C 54.762 281.583,54.843 281.893,54.942 281.514 C 55.041 281.136,55.041 280.516,54.942 280.138 C 54.843 279.759,54.762 280.069,54.762 280.826 M343.363 289.849 C 343.363 290.943,343.504 291.839,343.676 291.839 C 344.120 291.839,344.167 288.356,343.727 288.084 C 343.522 287.958,343.363 288.729,343.363 289.849 M135.841 292.157 C 135.929 293.060,135.843 293.701,135.650 293.582 C 135.458 293.463,135.300 292.639,135.300 291.750 C 135.300 289.727,135.628 289.974,135.841 292.157 M56.229 294.494 C 56.221 294.872,56.118 295.846,56.000 296.657 C 55.866 297.584,55.944 298.132,56.212 298.132 C 56.465 298.132,56.637 297.257,56.637 295.969 C 56.637 294.062,56.267 292.725,56.229 294.494 M136.081 295.674 C 136.076 296.771,135.977 296.997,135.693 296.559 C 135.192 295.783,135.192 294.199,135.693 294.199 C 135.910 294.199,136.084 294.862,136.081 295.674 M342.634 296.894 C 342.685 297.765,342.832 298.414,342.959 298.335 C 343.382 298.074,343.379 295.828,342.956 295.567 C 342.685 295.399,342.573 295.862,342.634 296.894 M341.396 304.213 C 341.396 305.627,341.557 306.785,341.753 306.785 C 342.330 306.785,342.450 302.622,341.888 302.099 C 341.498 301.735,341.396 302.173,341.396 304.213 M56.834 308.160 C 56.834 309.350,56.967 310.323,57.129 310.324 C 57.291 310.324,57.424 309.351,57.424 308.161 C 57.424 306.971,57.291 305.998,57.129 305.998 C 56.967 305.998,56.834 306.971,56.834 308.160 M340.610 311.875 C 340.610 315.054,341.193 315.206,341.334 312.063 C 341.405 310.468,341.293 309.538,341.028 309.538 C 340.779 309.538,340.610 310.484,340.610 311.875 M57.706 315.946 C 57.599 316.225,57.757 316.790,58.058 317.201 C 58.566 317.896,58.604 317.860,58.604 316.693 C 58.604 315.435,58.072 314.992,57.706 315.946 M160.629 322.314 C 160.651 323.075,160.536 323.698,160.374 323.697 C 160.211 323.697,160.079 322.960,160.079 322.058 C 160.079 320.100,160.572 320.329,160.629 322.314 M340.085 320.813 C 339.683 321.215,339.771 328.889,340.175 328.639 C 340.452 328.468,340.690 320.551,340.418 320.551 C 340.379 320.551,340.229 320.669,340.085 320.813 M160.865 327.916 C 160.865 331.156,160.660 331.000,160.315 327.500 C 160.136 325.684,160.182 324.895,160.458 325.065 C 160.682 325.203,160.865 326.486,160.865 327.916 M59.743 330.678 C 59.509 332.382,59.510 333.951,59.747 334.097 C 59.907 334.196,60.078 333.401,60.127 332.330 C 60.199 330.763,59.905 329.501,59.743 330.678 M339.082 333.421 C 339.133 334.541,339.296 335.383,339.443 335.292 C 339.805 335.068,339.684 332.080,339.298 331.694 C 339.128 331.524,339.031 332.301,339.082 333.421 M60.555 337.955 C 60.300 339.558,60.321 342.170,60.592 342.598 C 60.830 342.974,60.954 342.269,60.958 340.511 C 60.962 338.500,60.716 336.939,60.555 337.955 M338.301 341.204 C 338.340 342.397,338.467 343.277,338.584 343.160 C 338.919 342.825,338.874 339.036,338.535 339.036 C 338.367 339.036,338.262 340.012,338.301 341.204 M337.070 347.712 C 337.070 348.939,337.221 349.609,337.463 349.459 C 337.679 349.325,337.856 348.430,337.856 347.469 C 337.856 346.509,337.679 345.723,337.463 345.723 C 337.247 345.723,337.070 346.618,337.070 347.712 M161.551 358.407 C 161.478 360.192,161.419 358.732,161.419 355.162 C 161.419 351.593,161.478 350.133,161.551 351.917 C 161.624 353.702,161.624 356.622,161.551 358.407 M61.248 352.704 C 61.132 353.732,61.192 354.838,61.381 355.162 C 61.606 355.546,61.731 354.894,61.738 353.294 C 61.753 350.370,61.541 350.115,61.248 352.704 M336.311 356.221 C 336.330 358.302,336.447 359.038,336.676 358.505 C 337.151 357.402,337.151 353.685,336.676 353.392 C 336.426 353.238,336.293 354.267,336.311 356.221 M62.161 359.598 C 61.747 360.424,61.725 360.801,62.069 361.145 C 62.727 361.802,63.006 361.328,62.847 359.821 L 62.708 358.505 62.161 359.598 M335.509 368.240 C 335.502 370.133,335.629 371.681,335.792 371.681 C 336.240 371.681,336.338 366.199,335.902 365.452 C 335.634 364.993,335.517 365.824,335.509 368.240 M63.089 368.113 C 63.158 369.822,63.717 370.081,63.717 368.404 C 63.717 367.611,63.565 366.962,63.380 366.962 C 63.194 366.962,63.063 367.480,63.089 368.113 M139.117 372.173 C 139.024 372.660,138.947 372.262,138.947 371.288 C 138.947 370.315,139.024 369.916,139.117 370.403 C 139.211 370.890,139.211 371.686,139.117 372.173 M334.710 376.247 C 334.710 377.808,335.180 377.788,335.390 376.219 C 335.459 375.702,335.334 375.167,335.113 375.030 C 334.865 374.878,334.710 375.347,334.710 376.247 M64.773 381.416 C 64.679 381.578,64.744 382.065,64.918 382.498 C 65.195 383.184,65.238 383.147,65.262 382.203 C 65.290 381.135,65.106 380.840,64.773 381.416 M333.923 383.589 C 333.923 384.369,334.065 385.095,334.238 385.202 C 334.635 385.447,334.617 382.864,334.218 382.465 C 334.056 382.303,333.923 382.808,333.923 383.589 M140.138 387.548 C 140.249 387.838,140.182 388.325,139.989 388.630 C 139.734 389.033,139.637 388.889,139.632 388.102 C 139.626 386.928,139.819 386.716,140.138 387.548 M332.743 391.174 C 332.743 393.335,333.386 393.172,333.597 390.956 C 333.702 389.862,333.594 389.381,333.245 389.381 C 332.912 389.381,332.743 389.982,332.743 391.174 M140.413 390.977 C 140.413 391.397,140.236 391.740,140.020 391.740 C 139.803 391.740,139.626 391.287,139.626 390.734 C 139.626 390.163,139.797 389.833,140.020 389.971 C 140.236 390.104,140.413 390.557,140.413 390.977 " stroke="none" fill="#dfba80" fill-rule="evenodd"></path><path id="path4" d="M244.641 116.800 L 243.658 117.556 243.548 153.665 C 243.431 191.961,243.404 191.094,244.720 192.319 C 245.572 193.114,245.840 193.117,306.987 193.117 L 368.398 193.117 369.261 192.198 L 370.124 191.280 370.018 154.304 C 369.930 123.658,369.819 117.217,369.372 116.678 C 368.464 115.585,246.067 115.705,244.641 116.800 " stroke="none" fill="#35b1e6" fill-rule="evenodd"></path></g></svg>